<?xml version="1.0" standalone="no"?>
        <!DOCTYPE svg PUBLIC "-//W3C//DTD SVG 1.1//EN" 
        "http://www.w3.org/Graphics/SVG/1.1/DTD/svg11.dtd"><svg id="changeColor" fill="#DC7633" xmlns="http://www.w3.org/2000/svg" xmlns:xlink="http://www.w3.org/1999/xlink" width="147" zoomAndPan="magnify" viewBox="0 0 375 374.9999" height="147" preserveAspectRatio="xMidYMid meet" version="1.0"><defs><path id="pathAttribute" d="M 7.09375 7.09375 L 367.84375 7.09375 L 367.84375 367.84375 L 7.09375 367.84375 Z M 7.09375 7.09375 " fill="#737373"></path></defs><g><path id="pathAttribute" d="M 187.46875 7.09375 C 87.851562 7.09375 7.09375 87.851562 7.09375 187.46875 C 7.09375 287.085938 87.851562 367.84375 187.46875 367.84375 C 287.085938 367.84375 367.84375 287.085938 367.84375 187.46875 C 367.84375 87.851562 287.085938 7.09375 187.46875 7.09375 " fill-opacity="1" fill-rule="nonzero" fill="#737373"></path></g><g id="inner-icon" transform="translate(85, 75)"> <svg xmlns="http://www.w3.org/2000/svg" width="214" height="214" fill="currentColor" class="bi bi-infinity" viewBox="0 0 16 16" id="IconChangeColor"> <path d="M5.68 5.792 7.345 7.75 5.681 9.708a2.75 2.75 0 1 1 0-3.916ZM8 6.978 6.416 5.113l-.014-.015a3.75 3.75 0 1 0 0 5.304l.014-.015L8 8.522l1.584 1.865.014.015a3.75 3.75 0 1 0 0-5.304l-.014.015L8 6.978Zm.656.772 1.663-1.958a2.75 2.75 0 1 1 0 3.916L8.656 7.75Z" id="mainIconPathAttribute" stroke-width="0.4" stroke="#000000" fill="#000000"></path> </svg> </g></svg>